<svg version="1.1" xmlns="http://www.w3.org/2000/svg" xmlns:xlink="http://www.w3.org/1999/xlink" width="432.26738" height="139.34808" viewBox="0,0,432.26738,139.34808"><g transform="translate(-23.86631,-108.07596)"><g data-paper-data="{&quot;isPaintingLayer&quot;:true}" fill-rule="nonzero" stroke-linejoin="miter" stroke-miterlimit="10" stroke-dasharray="" stroke-dashoffset="0" style="mix-blend-mode: normal"><path d="M40.66697,153.18777c0,-9.09016 7.36904,-16.4592 16.4592,-16.4592c9.09016,0 16.4592,7.36904 16.4592,16.4592c0,9.09016 -7.36904,16.4592 -16.4592,16.4592c-9.09016,0 -16.4592,-7.36904 -16.4592,-16.4592z" fill="#ffffff" stroke="#ffffff" stroke-width="10" stroke-linecap="butt"/><path d="M47.94423,177.58581h18.77469c6.14619,0 11.13464,4.98845 11.13464,11.13464v52.84017h-41.44944v-52.44003c0,-6.37027 5.16984,-11.54012 11.54012,-11.54012z" fill="none" stroke="#ffffff" stroke-width="11" stroke-linecap="butt"/><path d="M110.94802,129.03516c0,-9.09016 7.36904,-16.4592 16.4592,-16.4592c9.09016,0 16.4592,7.36904 16.4592,16.4592c0,9.09016 -7.36904,16.4592 -16.4592,16.4592c-9.09016,0 -16.4592,-7.36904 -16.4592,-16.4592z" fill="#ffffff" stroke="#ffffff" stroke-width="9" stroke-linecap="butt"/><path d="M126.14278,185.09248c-1.23777,2.84368 -7.68808,16.87535 -23.30964,22.57338c-14.92265,5.44194 -32.31019,1.12573 -44.43718,-10.99592" fill="none" stroke="#ffffff" stroke-width="54" stroke-linecap="round"/><path d="M116.2139,155.58329h22.88282c7.49067,0 13.57284,6.08217 13.57284,13.57284v72.40448h-50.51935v-71.91364c0,-7.76277 6.30091,-14.06368 14.06368,-14.06368z" fill="#e7f5fd" stroke="#ffffff" stroke-width="11" stroke-linecap="butt"/><path d="M28.1345,157.28524c0,-9.09016 7.36904,-16.4592 16.4592,-16.4592c9.09016,0 16.4592,7.36904 16.4592,16.4592c0,9.09016 -7.36904,16.4592 -16.4592,16.4592c-9.09016,0 -16.4592,-7.36904 -16.4592,-16.4592z" fill="#262626" stroke="none" stroke-width="1" stroke-linecap="butt"/><path d="M35.40643,181.68327h18.77469c6.14619,0 11.13464,4.98845 11.13464,11.13464v54.60614h-41.44944v-54.206c0,-6.37027 5.16984,-11.54011 11.54012,-11.54011z" fill="#262626" stroke="none" stroke-width="1" stroke-linecap="butt"/><path d="M98.41556,133.13262c0,-9.09016 7.36904,-16.4592 16.4592,-16.4592c9.09016,0 16.4592,7.36904 16.4592,16.4592c0,9.09016 -7.36904,16.4592 -16.4592,16.4592c-9.09016,0 -16.4592,-7.36904 -16.4592,-16.4592z" fill="#262626" stroke="none" stroke-width="1" stroke-linecap="butt"/><path d="M113.61031,189.18994c-1.23777,2.84368 -7.68808,16.87535 -23.30964,22.57338c-14.92265,5.44194 -32.31019,1.12574 -44.43718,-10.99592" fill="#1f2e3f" stroke="none" stroke-width="1" stroke-linecap="butt"/><path d="M103.6761,159.68076h22.88282c7.49067,0 13.57284,6.08217 13.57284,13.57284v74.17045h-50.51935v-73.6796c0,-7.76277 6.30091,-14.06368 14.06368,-14.06368z" fill="#262626" stroke="none" stroke-width="1" stroke-linecap="butt"/><path d="M40.66697,153.18777c0,-9.09016 7.36904,-16.4592 16.4592,-16.4592c9.09016,0 16.4592,7.36904 16.4592,16.4592c0,9.09016 -7.36904,16.4592 -16.4592,16.4592c-9.09016,0 -16.4592,-7.36904 -16.4592,-16.4592z" fill="#005b96" stroke="none" stroke-width="1" stroke-linecap="butt"/><path d="M47.94423,177.58581h18.77469c6.14619,0 11.13464,4.98845 11.13464,11.13464v52.84017h-41.44944v-52.44003c0,-6.37027 5.16984,-11.54012 11.54012,-11.54012z" fill="#005b96" stroke="none" stroke-width="1" stroke-linecap="butt"/><path d="M110.94802,129.03516c0,-9.09016 7.36904,-16.4592 16.4592,-16.4592c9.09016,0 16.4592,7.36904 16.4592,16.4592c0,9.09016 -7.36904,16.4592 -16.4592,16.4592c-9.09016,0 -16.4592,-7.36904 -16.4592,-16.4592z" fill="#005b96" stroke="none" stroke-width="1" stroke-linecap="butt"/><path d="M128.22885,179.49582c-0.53352,1.94203 -6.18887,21.14888 -25.39039,28.17004c-15.18408,5.55398 -32.69966,1.23777 -44.43718,-10.99592" fill="none" stroke="#1d3b6b" stroke-width="38" stroke-linecap="round"/><path d="M116.2139,155.58329h22.88282c7.49067,0 13.57284,6.08217 13.57284,13.57284v72.40448h-50.51935v-71.91364c0,-7.76277 6.30091,-14.06368 14.06368,-14.06368z" fill="#005b96" stroke="none" stroke-width="1" stroke-linecap="butt"/><g fill="#f4fafd" stroke="none" stroke-width="1" stroke-linecap="butt"><path d="M199.01498,125.848v31.50893h-9.87545v-31.50893z"/><path d="M233.68048,157.34881h-9.87545l-10.4597,-15.83967v15.83967h-9.87545v-31.50893h9.87545l10.4597,16.10745v-16.10745h9.87545z"/><path d="M239.13348,133.23227c1.25776,-2.43438 3.0592,-4.32508 5.40431,-5.6721c2.34512,-1.34702 5.10408,-2.02864 8.27688,-2.02864c2.7265,0 5.16899,0.51122 7.31935,1.53366c2.15036,1.02244 3.90312,2.46683 5.25014,4.3413c1.34702,1.86635 2.24774,4.04918 2.69404,6.54036h-10.41101c-0.47065,-1.03866 -1.15227,-1.85013 -2.02864,-2.42626c-0.87638,-0.57613 -1.87447,-0.86826 -3.0024,-0.86826c-1.66349,0 -2.97805,0.62483 -3.93557,1.86636c-0.96564,1.24965 -1.4444,2.92125 -1.4444,5.03104c0,2.10979 0.47876,3.7814 1.4444,5.03104c0.96564,1.24965 2.2802,1.86635 3.93557,1.86635c1.12793,0 2.12602,-0.29213 3.0024,-0.86826c0.87638,-0.57613 1.54988,-1.38759 2.02864,-2.42626h10.41101c-0.4463,2.49118 -1.34702,4.674 -2.69404,6.54035c-1.34702,1.86635 -3.09978,3.31887 -5.25014,4.3413c-2.15036,1.02244 -4.59285,1.53366 -7.31935,1.53366c-3.1728,0 -5.93176,-0.67351 -8.27688,-2.02865c-2.34512,-1.34702 -4.14655,-3.23772 -5.40431,-5.67209c-1.25776,-2.43438 -1.89069,-5.20957 -1.89069,-8.32556c0,-3.116 0.63293,-5.89119 1.89069,-8.31745z"/><path d="M281.51596,149.87528h9.52652v7.47353h-19.40197v-31.50893h9.87545v24.02729z"/><path d="M303.81483,125.848v17.75471c0,1.45251 0.31647,2.60478 0.95752,3.4487c0.64105,0.84392 1.6716,1.26587 3.09165,1.26587c1.42005,0 2.47495,-0.42196 3.15657,-1.26587c0.68163,-0.84392 1.02244,-1.99619 1.02244,-3.4487v-17.75471h9.83488v17.75471c0,2.99428 -0.62483,5.55849 -1.86636,7.67639c-1.24965,2.11791 -2.95371,3.71648 -5.1203,4.7876c-2.1666,1.07112 -4.58474,1.59858 -7.25444,1.59858c-2.6697,0 -5.03916,-0.53556 -7.10026,-1.59858c-2.0611,-1.07112 -3.66779,-2.65346 -4.82818,-4.76326c-1.16039,-2.10979 -1.73652,-4.674 -1.73652,-7.70074v-17.75471h9.83488z"/><path d="M329.15668,155.01181c-2.4506,-1.76086 -3.77328,-4.34942 -3.98426,-7.76566h10.50027c0.14606,1.80955 0.94941,2.71839 2.40192,2.71839c0.53556,0 0.98186,-0.12172 1.35513,-0.38138c0.37327,-0.25155 0.55991,-0.64917 0.55991,-1.17662c0,-0.73843 -0.39762,-1.33891 -1.20096,-1.80144c-0.80334,-0.46253 -2.04487,-0.98998 -3.74082,-1.58234c-2.02053,-0.71408 -3.68402,-1.41194 -5.0067,-2.09356c-1.32268,-0.68163 -2.45872,-1.6716 -3.40001,-2.97805c-0.9494,-1.30645 -1.41194,-2.97806 -1.37948,-5.03104c0,-2.04487 0.52745,-3.78951 1.58234,-5.22579c1.0549,-1.43628 2.49118,-2.53175 4.31696,-3.27018c1.82578,-0.73843 3.87877,-1.1117 6.16708,-1.1117c3.85443,0 6.92174,0.89261 9.18571,2.6697c2.27208,1.77709 3.46492,4.2845 3.58664,7.52222h-10.63822c-0.03246,-0.8926 -0.25155,-1.52554 -0.66539,-1.91504c-0.41384,-0.3895 -0.91695,-0.57614 -1.50931,-0.57614c-0.41384,0 -0.75466,0.13795 -1.02244,0.42196c-0.26778,0.28401 -0.39762,0.67351 -0.39762,1.17662c0,0.71408 0.3895,1.29833 1.17662,1.76086c0.78711,0.46253 2.03676,1.01432 3.75705,1.6716c1.98807,0.73843 3.62722,1.45251 4.91744,2.13414c1.29022,0.68163 2.41003,1.63103 3.35944,2.84822c0.9494,1.21719 1.42005,2.74273 1.42005,4.58474c0,1.84201 -0.47065,3.65968 -1.42005,5.18522c-0.9494,1.52554 -2.32888,2.71838 -4.13844,3.58664c-1.80955,0.86015 -3.95992,1.29022 -6.45109,1.29022c-3.76517,0 -6.87305,-0.88449 -9.32366,-2.64535z"/><path d="M363.83841,125.848v31.50893h-9.87545v-31.50893z"/><path d="M375.47472,155.57172c-2.47495,-1.39571 -4.44679,-3.31887 -5.8993,-5.7857c-1.45251,-2.45872 -2.18283,-5.2339 -2.18283,-8.31745c0,-3.08354 0.73032,-5.85873 2.18283,-8.32556c1.45251,-2.45872 3.41624,-4.38187 5.8993,-5.76135c2.47495,-1.37948 5.20145,-2.06922 8.16327,-2.06922c2.96182,0 5.68021,0.68974 8.14704,2.06922c2.45872,1.37948 4.41433,3.30263 5.85061,5.76135c1.43628,2.46683 2.15848,5.23391 2.15848,8.32556c0,3.09166 -0.7222,5.85873 -2.15848,8.31745c-1.43628,2.46683 -3.40001,4.38999 -5.87496,5.7857c-2.47495,1.39571 -5.18522,2.09356 -8.1227,2.09356c-2.93748,0 -5.68832,-0.69785 -8.16327,-2.09356zM388.18216,146.55641c1.07112,-1.25776 1.59857,-2.96182 1.59857,-5.09596c0,-2.13414 -0.53556,-3.87877 -1.59857,-5.13653c-1.07112,-1.25776 -2.58044,-1.8907 -4.53605,-1.8907c-1.95561,0 -3.51362,0.63294 -4.58474,1.8907c-1.07112,1.25776 -1.59857,2.97805 -1.59857,5.13653c0,2.15848 0.53556,3.8382 1.59857,5.09596c1.07112,1.25776 2.59667,1.8907 4.58474,1.8907c1.98807,0 3.47304,-0.63294 4.53605,-1.8907z"/><path d="M433.57514,157.34881h-9.87545l-10.4597,-15.83967v15.83967h-9.87545v-31.50893h9.87545l10.4597,16.10745v-16.10745h9.87545z"/><path d="M209.00403,172.81521c2.47495,1.25776 4.38999,3.06731 5.73701,5.42866c1.34702,2.36134 2.02865,5.11219 2.02865,8.25253c0,3.14035 -0.67351,5.87496 -2.02865,8.18762c-1.35513,2.31266 -3.26207,4.08975 -5.73701,5.31505c-2.47495,1.23342 -5.36374,1.85013 -8.65826,1.85013h-10.10266v-30.92468h10.10266c3.29452,0 6.17519,0.63294 8.65826,1.8907zM208.67133,194.77328c1.93127,-1.95561 2.88879,-4.71457 2.88879,-8.27688c0,-3.5623 -0.96564,-6.39429 -2.88879,-8.40671c-1.93127,-2.02053 -4.69834,-3.02674 -8.31745,-3.02674h-5.03104v22.64781h5.03104c3.6191,0 6.39429,-0.98186 8.31745,-2.93748z"/><path d="M226.87235,175.01426v9.08022h10.67879v4.13844h-10.67879v9.47784h12.0177v4.13844h-17.08932v-30.97337h17.08932v4.13844z"/><path d="M249.69867,201.07019c-1.66349,-0.73031 -2.96994,-1.76086 -3.91934,-3.09165c-0.9494,-1.33079 -1.42005,-2.88879 -1.42005,-4.674h5.42866c0.12172,1.33891 0.64105,2.43437 1.58234,3.29452c0.93318,0.86015 2.24774,1.29022 3.93557,1.29022c1.68783,0 3.116,-0.42196 4.09787,-1.26588c0.98186,-0.84392 1.46874,-1.93127 1.46874,-3.27017c0,-1.03866 -0.30835,-1.88259 -0.90883,-2.53987c-0.60859,-0.64917 -1.36325,-1.16038 -2.27208,-1.50931c-0.90884,-0.35704 -2.15848,-0.73843 -3.75705,-1.16039c-2.02053,-0.53556 -3.65968,-1.07924 -4.91744,-1.62292c-1.25776,-0.55179 -2.337,-1.40382 -3.22961,-2.55609c-0.8926,-1.15227 -1.33891,-2.70216 -1.33891,-4.62531c0,-1.77709 0.4463,-3.33509 1.33891,-4.674c0.8926,-1.33891 2.13414,-2.36134 3.74082,-3.06731c1.59857,-0.71408 3.45681,-1.07113 5.5666,-1.07113c2.99428,0 5.453,0.74655 7.36804,2.24774c1.91504,1.5012 2.97805,3.55419 3.18091,6.16708h-5.60718c-0.08926,-1.12793 -0.62482,-2.09357 -1.59857,-2.89691c-0.98186,-0.80334 -2.27209,-1.20095 -3.87066,-1.20095c-1.45251,0 -2.63724,0.37327 -3.5623,1.1117c-0.91695,0.73843 -1.37948,1.80955 -1.37948,3.20526c0,0.9494 0.29213,1.72841 0.86826,2.337c0.57613,0.60859 1.31456,1.08735 2.19905,1.4444c0.8926,0.35704 2.10979,0.73843 3.65156,1.16039c2.04487,0.55991 3.71648,1.12793 5.0067,1.68784c1.29022,0.55991 2.38569,1.42817 3.29452,2.60478c0.90884,1.17661 1.35513,2.73461 1.35513,4.69834c0,1.57423 -0.42196,3.0592 -1.26587,4.44679c-0.84392,1.38759 -2.07733,2.51552 -3.69214,3.35944c-1.6148,0.84392 -3.52173,1.26587 -5.72078,1.26587c-2.07733,0 -3.94369,-0.36515 -5.60718,-1.08735z"/><path d="M304.43154,170.34838v20.33514c0,3.76517 -0.98998,6.6215 -2.96182,8.569c-1.97185,1.9475 -4.73892,2.91314 -8.30122,2.91314c-3.83009,0 -6.86494,-1.0549 -9.12079,-3.15657c-2.25586,-2.10168 -3.38378,-5.17711 -3.38378,-9.21005h9.74562c0,1.27399 0.20286,2.17471 0.62482,2.69404c0.41384,0.51933 0.98187,0.779 1.68784,0.779c0.59237,0 1.05489,-0.19475 1.37948,-0.57613c0.32458,-0.38138 0.48688,-1.0549 0.48688,-2.00431v-20.33514h9.83488z"/><path d="M318.58337,178.21952v3.87066h9.79431v7.43296h-9.79431v4.44679h11.12509v7.87926h-21.00054v-31.50893h21.00054v7.87926z"/><path d="M343.10565,170.34838v17.75471c0,1.45251 0.31647,2.60478 0.95752,3.4487c0.64105,0.84392 1.6716,1.26587 3.09166,1.26587c1.42005,0 2.47495,-0.42196 3.15657,-1.26587c0.68163,-0.84392 1.02244,-1.99619 1.02244,-3.4487v-17.75471h9.83488v17.75471c0,2.99428 -0.62482,5.55849 -1.86635,7.67639c-1.24965,2.12602 -2.95371,3.71648 -5.1203,4.78761c-2.1666,1.07112 -4.58474,1.59857 -7.25444,1.59857c-2.6697,0 -5.03916,-0.53556 -7.10026,-1.59857c-2.0611,-1.06301 -3.66779,-2.65347 -4.82818,-4.76326c-1.16039,-2.10979 -1.73652,-4.674 -1.73652,-7.70074v-17.75471h9.83488z"/><path d="M395.65569,201.84919h-9.87545l-10.4597,-15.83967v15.83967h-9.87545v-31.50893h9.87545l10.4597,16.10745v-16.10745h9.87545z"/><path d="M409.98605,178.21952v3.87066h9.79431v7.43296h-9.79431v4.44679h11.12509v7.87926h-21.00054v-31.50893h21.00054v7.87926z"/><path d="M427.85436,199.51219c-2.4506,-1.76086 -3.77328,-4.35753 -3.98426,-7.76566h10.50027c0.14606,1.80955 0.94941,2.71839 2.40192,2.71839c0.53556,0 0.98186,-0.12983 1.35513,-0.38138c0.37327,-0.25155 0.55991,-0.64917 0.55991,-1.17662c0,-0.73843 -0.39762,-1.33891 -1.20096,-1.80144c-0.80334,-0.46253 -2.04487,-0.98186 -3.74082,-1.58234c-2.02053,-0.71408 -3.68402,-1.41194 -5.0067,-2.09356c-1.32268,-0.68163 -2.45872,-1.6716 -3.40001,-2.97805c-0.9494,-1.30645 -1.41194,-2.97806 -1.37948,-5.03104c0,-2.04487 0.52745,-3.78951 1.58234,-5.22579c1.0549,-1.43628 2.49118,-2.53175 4.31696,-3.27018c1.82578,-0.73843 3.87877,-1.1117 6.16708,-1.1117c3.85443,0 6.92174,0.89261 9.18571,2.6697c2.26397,1.77709 3.46493,4.2845 3.58665,7.52222h-10.63822c-0.03246,-0.8926 -0.25155,-1.52554 -0.66539,-1.91504c-0.41384,-0.3895 -0.91695,-0.57614 -1.50931,-0.57614c-0.41384,0 -0.75466,0.13795 -1.02244,0.42196c-0.26778,0.28401 -0.39761,0.67351 -0.39761,1.17662c0,0.71408 0.3895,1.29833 1.17661,1.76086c0.78711,0.46253 2.03676,1.01432 3.75705,1.6716c1.98807,0.73843 3.62722,1.45251 4.91744,2.13414c1.29022,0.68163 2.41004,1.63103 3.35944,2.84822c0.9494,1.21719 1.42005,2.74273 1.42005,4.58474c0,1.84201 -0.47065,3.65968 -1.42005,5.18522c-0.9494,1.52554 -2.32889,2.71838 -4.13844,3.57853c-1.80955,0.86015 -3.95992,1.29022 -6.45109,1.29022c-3.76517,0 -6.87305,-0.88449 -9.32366,-2.64535z"/><path d="M208.89043,240.03642h-12.95087l-2.2234,6.32126h-5.29883l11.07641,-30.97337h5.87496l11.08452,30.97337h-5.3394zM207.47037,235.88987l-5.03104,-14.37093l-5.07162,14.37093z"/><path d="M226.28809,215.42489v19.71032c0,2.34512 0.61671,4.10598 1.85013,5.29883c1.23342,1.18473 2.9456,1.77709 5.13653,1.77709c2.19094,0 3.9518,-0.59236 5.18522,-1.77709c1.23342,-1.18473 1.85013,-2.95371 1.85013,-5.29883v-19.71032h5.07161v19.62106c0,2.52363 -0.55179,4.65777 -1.64726,6.41052c-1.09547,1.75275 -2.56421,3.05919 -4.40622,3.91934c-1.84201,0.86015 -3.87066,1.29022 -6.09405,1.29022c-2.2234,0 -4.25204,-0.43007 -6.07782,-1.29022c-1.82578,-0.86015 -3.27018,-2.16659 -4.3413,-3.91934c-1.07112,-1.75275 -1.59857,-3.88689 -1.59857,-6.41052v-19.62106z"/><path d="M287.16371,214.84876v7.83057h-8.36614v23.67024h-9.87545v-23.67024h-8.27687v-7.83057z"/><path d="M305.68119,246.34957l-5.91553,-11.30362h-0.04869v11.30362h-9.87545v-31.50893h14.6874c2.54798,0 4.7308,0.45442 6.54035,1.35514c1.80955,0.90884 3.16469,2.13413 4.07352,3.69213c0.90884,1.558 1.35513,3.31887 1.35513,5.27448c0,2.10979 -0.58425,3.97615 -1.76086,5.60718c-1.1685,1.63103 -2.85633,2.80765 -5.04727,3.51362l6.85682,12.05827h-10.85732zM299.71696,228.46503h3.91935c0.9494,0 1.66349,-0.21098 2.13414,-0.64105c0.47065,-0.43007 0.71408,-1.10358 0.71408,-2.02865c0,-0.82769 -0.24343,-1.48497 -0.73842,-1.95561c-0.48688,-0.47065 -1.19285,-0.71409 -2.10979,-0.71409h-3.91935z"/><path d="M339.85981,241.58631h-10.50027l-1.558,4.76326h-10.37044l11.52271,-31.50893h11.39288l11.48214,31.50893h-10.41101zM337.44978,234.16146l-2.84822,-8.76375l-2.84822,8.76375z"/><path d="M385.78024,214.84876l-10.58953,31.50893h-12.77236l-10.58953,-31.50893h10.50027l6.49978,21.67405l6.4511,-21.67405z"/><path d="M408.20896,241.58631h-10.50027l-1.558,4.76326h-10.37044l11.52271,-31.50893h11.39288l11.48213,31.50893h-10.41101zM405.80704,234.16146l-2.84822,-8.76375l-2.84822,8.76375z"/><path d="M432.27681,214.84876v31.50893h-9.87545v-31.50893z"/><path d="M446.60717,238.87604h9.52652v7.47353h-19.40197v-31.50893h9.87545v24.02729z"/></g></g></g></svg>