<svg version="1.1" xmlns="http://www.w3.org/2000/svg" xmlns:xlink="http://www.w3.org/1999/xlink" width="329.92" height="149.55" viewBox="0,0,329.92,149.55"><g transform="translate(-75.04,-105.225)"><g data-paper-data="{&quot;isPaintingLayer&quot;:true}" fill="#f4fafd" fill-rule="nonzero" stroke="none" stroke-width="1" stroke-linecap="butt" stroke-linejoin="miter" stroke-miterlimit="10" stroke-dasharray="" stroke-dashoffset="0" style="mix-blend-mode: normal"><g><path d="M88.1,105.885v38.83h-12.17v-38.83z"/><path d="M130.82,144.705h-12.17l-12.89,-19.52v19.52h-12.17v-38.83h12.17l12.89,19.85v-19.85h12.17z"/><path d="M137.54,114.985c1.55,-3 3.77,-5.33 6.66,-6.99c2.89,-1.66 6.29,-2.5 10.2,-2.5c3.36,0 6.37,0.63 9.02,1.89c2.65,1.26 4.81,3.04 6.47,5.35c1.66,2.3 2.77,4.99 3.32,8.06h-12.83c-0.58,-1.28 -1.42,-2.28 -2.5,-2.99c-1.08,-0.71 -2.31,-1.07 -3.7,-1.07c-2.05,0 -3.67,0.77 -4.85,2.3c-1.19,1.54 -1.78,3.6 -1.78,6.2c0,2.6 0.59,4.66 1.78,6.2c1.19,1.54 2.81,2.3 4.85,2.3c1.39,0 2.62,-0.36 3.7,-1.07c1.08,-0.71 1.91,-1.71 2.5,-2.99h12.83c-0.55,3.07 -1.66,5.76 -3.32,8.06c-1.66,2.3 -3.82,4.09 -6.47,5.35c-2.65,1.26 -5.66,1.89 -9.02,1.89c-3.91,0 -7.31,-0.83 -10.2,-2.5c-2.89,-1.66 -5.11,-3.99 -6.66,-6.99c-1.55,-3 -2.33,-6.42 -2.33,-10.26c0,-3.84 0.78,-7.26 2.33,-10.25z"/><path d="M189.77,135.495h11.74v9.21h-23.91v-38.83h12.17v29.61z"/><path d="M217.25,105.885v21.88c0,1.79 0.39,3.21 1.18,4.25c0.79,1.04 2.06,1.56 3.81,1.56c1.75,0 3.05,-0.52 3.89,-1.56c0.84,-1.04 1.26,-2.46 1.26,-4.25v-21.88h12.12v21.88c0,3.69 -0.77,6.85 -2.3,9.46c-1.54,2.61 -3.64,4.58 -6.31,5.9c-2.67,1.32 -5.65,1.97 -8.94,1.97c-3.29,0 -6.21,-0.66 -8.75,-1.97c-2.54,-1.32 -4.52,-3.27 -5.95,-5.87c-1.43,-2.6 -2.14,-5.76 -2.14,-9.49v-21.88h12.12z"/><path d="M248.48,141.825c-3.02,-2.17 -4.65,-5.36 -4.91,-9.57h12.94c0.18,2.23 1.17,3.35 2.96,3.35c0.66,0 1.21,-0.15 1.67,-0.47c0.46,-0.31 0.69,-0.8 0.69,-1.45c0,-0.91 -0.49,-1.65 -1.48,-2.22c-0.99,-0.57 -2.52,-1.22 -4.61,-1.95c-2.49,-0.88 -4.54,-1.74 -6.17,-2.58c-1.63,-0.84 -3.03,-2.06 -4.19,-3.67c-1.17,-1.61 -1.74,-3.67 -1.7,-6.2c0,-2.52 0.65,-4.67 1.95,-6.44c1.3,-1.77 3.07,-3.12 5.32,-4.03c2.25,-0.91 4.78,-1.37 7.6,-1.37c4.75,0 8.53,1.1 11.32,3.29c2.8,2.19 4.27,5.28 4.42,9.27h-13.11c-0.04,-1.1 -0.31,-1.88 -0.82,-2.36c-0.51,-0.48 -1.13,-0.71 -1.86,-0.71c-0.51,0 -0.93,0.17 -1.26,0.52c-0.33,0.35 -0.49,0.83 -0.49,1.45c0,0.88 0.48,1.6 1.45,2.17c0.97,0.57 2.51,1.25 4.63,2.06c2.45,0.91 4.47,1.79 6.06,2.63c1.59,0.84 2.97,2.01 4.14,3.51c1.17,1.5 1.75,3.38 1.75,5.65c0,2.27 -0.58,4.51 -1.75,6.39c-1.17,1.88 -2.87,3.35 -5.1,4.42c-2.23,1.06 -4.88,1.59 -7.95,1.59c-4.64,0 -8.47,-1.09 -11.49,-3.26z"/><path d="M291.22,105.885v38.83h-12.17v-38.83z"/><path d="M305.56,142.515c-3.05,-1.72 -5.48,-4.09 -7.27,-7.13c-1.79,-3.03 -2.69,-6.45 -2.69,-10.25c0,-3.8 0.9,-7.22 2.69,-10.26c1.79,-3.03 4.21,-5.4 7.27,-7.1c3.05,-1.7 6.41,-2.55 10.06,-2.55c3.65,0 7,0.85 10.04,2.55c3.03,1.7 5.44,4.07 7.21,7.1c1.77,3.04 2.66,6.45 2.66,10.26c0,3.81 -0.89,7.22 -2.66,10.25c-1.77,3.04 -4.19,5.41 -7.24,7.13c-3.05,1.72 -6.39,2.58 -10.01,2.58c-3.62,0 -7.01,-0.86 -10.06,-2.58zM321.22,131.405c1.32,-1.55 1.97,-3.65 1.97,-6.28c0,-2.63 -0.66,-4.78 -1.97,-6.33c-1.32,-1.55 -3.18,-2.33 -5.59,-2.33c-2.41,0 -4.33,0.78 -5.65,2.33c-1.32,1.55 -1.97,3.67 -1.97,6.33c0,2.66 0.66,4.73 1.97,6.28c1.32,1.55 3.2,2.33 5.65,2.33c2.45,0 4.28,-0.78 5.59,-2.33z"/><path d="M377.16,144.705h-12.17l-12.89,-19.52v19.52h-12.17v-38.83h12.17l12.89,19.85v-19.85h12.17z"/><path d="M100.41,163.765c3.05,1.55 5.41,3.78 7.07,6.69c1.66,2.91 2.5,6.3 2.5,10.17c0,3.87 -0.83,7.24 -2.5,10.09c-1.67,2.85 -4.02,5.04 -7.07,6.55c-3.05,1.52 -6.61,2.28 -10.67,2.28h-12.45v-38.11h12.45c4.06,0 7.61,0.78 10.67,2.33zM100,190.825c2.38,-2.41 3.56,-5.81 3.56,-10.2c0,-4.39 -1.19,-7.88 -3.56,-10.36c-2.38,-2.49 -5.79,-3.73 -10.25,-3.73h-6.2v27.91h6.2c4.46,0 7.88,-1.21 10.25,-3.62z"/><path d="M122.43,166.475v11.19h13.16v5.1h-13.16v11.68h14.81v5.1h-21.06v-38.17h21.06v5.1z"/><path d="M150.56,198.585c-2.05,-0.9 -3.66,-2.17 -4.83,-3.81c-1.17,-1.64 -1.75,-3.56 -1.75,-5.76h6.69c0.15,1.65 0.79,3 1.95,4.06c1.15,1.06 2.77,1.59 4.85,1.59c2.08,0 3.84,-0.52 5.05,-1.56c1.21,-1.04 1.81,-2.38 1.81,-4.03c0,-1.28 -0.38,-2.32 -1.12,-3.13c-0.75,-0.8 -1.68,-1.43 -2.8,-1.86c-1.12,-0.44 -2.66,-0.91 -4.63,-1.43c-2.49,-0.66 -4.51,-1.33 -6.06,-2c-1.55,-0.68 -2.88,-1.73 -3.98,-3.15c-1.1,-1.42 -1.65,-3.33 -1.65,-5.7c0,-2.19 0.55,-4.11 1.65,-5.76c1.1,-1.65 2.63,-2.91 4.61,-3.78c1.97,-0.88 4.26,-1.32 6.86,-1.32c3.69,0 6.72,0.92 9.08,2.77c2.36,1.85 3.67,4.38 3.92,7.6h-6.91c-0.11,-1.39 -0.77,-2.58 -1.97,-3.57c-1.21,-0.99 -2.8,-1.48 -4.77,-1.48c-1.79,0 -3.25,0.46 -4.39,1.37c-1.13,0.91 -1.7,2.23 -1.7,3.95c0,1.17 0.36,2.13 1.07,2.88c0.71,0.75 1.62,1.34 2.71,1.78c1.1,0.44 2.6,0.91 4.5,1.43c2.52,0.69 4.58,1.39 6.17,2.08c1.59,0.69 2.94,1.76 4.06,3.21c1.12,1.45 1.67,3.37 1.67,5.79c0,1.94 -0.52,3.77 -1.56,5.48c-1.04,1.71 -2.56,3.1 -4.55,4.14c-1.99,1.04 -4.34,1.56 -7.05,1.56c-2.56,0 -4.86,-0.45 -6.91,-1.34z"/><path d="M218.01,160.725v25.06c0,4.64 -1.22,8.16 -3.65,10.56c-2.43,2.4 -5.84,3.59 -10.23,3.59c-4.72,0 -8.46,-1.3 -11.24,-3.89c-2.78,-2.59 -4.17,-6.38 -4.17,-11.35h12.01c0,1.57 0.25,2.68 0.77,3.32c0.51,0.64 1.21,0.96 2.08,0.96c0.73,0 1.3,-0.24 1.7,-0.71c0.4,-0.47 0.6,-1.3 0.6,-2.47v-25.06h12.12z"/><path d="M235.45,170.425v4.77h12.07v9.16h-12.07v5.48h13.71v9.71h-25.88v-38.83h25.88v9.71z"/><path d="M265.67,160.725v21.88c0,1.79 0.39,3.21 1.18,4.25c0.79,1.04 2.06,1.56 3.81,1.56c1.75,0 3.05,-0.52 3.89,-1.56c0.84,-1.04 1.26,-2.46 1.26,-4.25v-21.88h12.12v21.88c0,3.69 -0.77,6.85 -2.3,9.46c-1.54,2.62 -3.64,4.58 -6.31,5.9c-2.67,1.32 -5.65,1.97 -8.94,1.97c-3.29,0 -6.21,-0.66 -8.75,-1.97c-2.54,-1.31 -4.52,-3.27 -5.95,-5.87c-1.43,-2.6 -2.14,-5.76 -2.14,-9.49v-21.88h12.12z"/><path d="M330.43,199.545h-12.17l-12.89,-19.52v19.52h-12.17v-38.83h12.17l12.89,19.85v-19.85h12.17z"/><path d="M348.09,170.425v4.77h12.07v9.16h-12.07v5.48h13.71v9.71h-25.88v-38.83h25.88v9.71z"/><path d="M370.11,196.665c-3.02,-2.17 -4.65,-5.37 -4.91,-9.57h12.94c0.18,2.23 1.17,3.35 2.96,3.35c0.66,0 1.21,-0.16 1.67,-0.47c0.46,-0.31 0.69,-0.8 0.69,-1.45c0,-0.91 -0.49,-1.65 -1.48,-2.22c-0.99,-0.57 -2.52,-1.21 -4.61,-1.95c-2.49,-0.88 -4.54,-1.74 -6.17,-2.58c-1.63,-0.84 -3.03,-2.06 -4.19,-3.67c-1.17,-1.61 -1.74,-3.67 -1.7,-6.2c0,-2.52 0.65,-4.67 1.95,-6.44c1.3,-1.77 3.07,-3.12 5.32,-4.03c2.25,-0.91 4.78,-1.37 7.6,-1.37c4.75,0 8.53,1.1 11.32,3.29c2.79,2.19 4.27,5.28 4.42,9.27h-13.11c-0.04,-1.1 -0.31,-1.88 -0.82,-2.36c-0.51,-0.48 -1.13,-0.71 -1.86,-0.71c-0.51,0 -0.93,0.17 -1.26,0.52c-0.33,0.35 -0.49,0.83 -0.49,1.45c0,0.88 0.48,1.6 1.45,2.17c0.97,0.57 2.51,1.25 4.63,2.06c2.45,0.91 4.47,1.79 6.06,2.63c1.59,0.84 2.97,2.01 4.14,3.51c1.17,1.5 1.75,3.38 1.75,5.65c0,2.27 -0.58,4.51 -1.75,6.39c-1.17,1.88 -2.87,3.35 -5.1,4.41c-2.23,1.06 -4.88,1.59 -7.95,1.59c-4.64,0 -8.47,-1.09 -11.49,-3.26z"/><path d="M100.27,246.605h-15.96l-2.74,7.79h-6.53l13.65,-38.17h7.24l13.66,38.17h-6.58zM98.52,241.495l-6.2,-17.71l-6.25,17.71z"/><path d="M121.71,216.275v24.29c0,2.89 0.76,5.06 2.28,6.53c1.52,1.46 3.63,2.19 6.33,2.19c2.7,0 4.87,-0.73 6.39,-2.19c1.52,-1.46 2.28,-3.64 2.28,-6.53v-24.29h6.25v24.18c0,3.11 -0.68,5.74 -2.03,7.9c-1.35,2.16 -3.16,3.77 -5.43,4.83c-2.27,1.06 -4.77,1.59 -7.51,1.59c-2.74,0 -5.24,-0.53 -7.49,-1.59c-2.25,-1.06 -4.03,-2.67 -5.35,-4.83c-1.32,-2.16 -1.97,-4.79 -1.97,-7.9v-24.18z"/><path d="M196.73,215.565v9.65h-10.31v29.17h-12.17v-29.17h-10.2v-9.65z"/><path d="M219.55,254.385l-7.29,-13.93h-0.06v13.93h-12.17v-38.83h18.1c3.14,0 5.83,0.56 8.06,1.67c2.23,1.12 3.9,2.63 5.02,4.55c1.12,1.92 1.67,4.09 1.67,6.5c0,2.6 -0.72,4.9 -2.17,6.91c-1.44,2.01 -3.52,3.46 -6.22,4.33l8.45,14.86h-13.38zM212.2,232.345h4.83c1.17,0 2.05,-0.26 2.63,-0.79c0.58,-0.53 0.88,-1.36 0.88,-2.5c0,-1.02 -0.3,-1.83 -0.91,-2.41c-0.6,-0.58 -1.47,-0.88 -2.6,-0.88h-4.83z"/><path d="M261.67,248.515h-12.94l-1.92,5.87h-12.78l14.2,-38.83h14.04l14.15,38.83h-12.83zM258.7,239.365l-3.51,-10.8l-3.51,10.8z"/><path d="M318.26,215.565l-13.05,38.83h-15.74l-13.05,-38.83h12.94l8.01,26.71l7.95,-26.71z"/><path d="M345.9,248.515h-12.94l-1.92,5.87h-12.78l14.2,-38.83h14.04l14.15,38.83h-12.83zM342.94,239.365l-3.51,-10.8l-3.51,10.8z"/><path d="M375.56,215.565v38.83h-12.17v-38.83z"/><path d="M393.22,245.175h11.74v9.21h-23.91v-38.83h12.17v29.61z"/></g></g></g></svg>