<svg version="1.1" xmlns="http://www.w3.org/2000/svg" xmlns:xlink="http://www.w3.org/1999/xlink" width="246.92" height="257.25" viewBox="0,0,246.92,257.25"><g transform="translate(-119.29,-49.125)"><g data-paper-data="{&quot;isPaintingLayer&quot;:true}" fill-rule="nonzero" stroke-linejoin="miter" stroke-miterlimit="10" stroke-dasharray="" stroke-dashoffset="0" style="mix-blend-mode: normal"><path d="M150.78,129.745c0,-17.03798 13.81202,-30.85 30.85,-30.85c17.03798,0 30.85,13.81202 30.85,30.85c0,17.03798 -13.81202,30.85 -30.85,30.85c-17.03798,0 -30.85,-13.81202 -30.85,-30.85z" fill="#ffffff" stroke="#ffffff" stroke-width="10" stroke-linecap="butt"/><path d="M164.42,175.475h35.19c11.52,0 20.87,9.35 20.87,20.87v99.04h-77.69v-98.29c0,-11.94 9.69,-21.63 21.63,-21.63z" fill="none" stroke="#ffffff" stroke-width="11" stroke-linecap="butt"/><path d="M282.51,84.475c0,-17.03798 13.81202,-30.85 30.85,-30.85c17.03798,0 30.85,13.81202 30.85,30.85c0,17.03798 -13.81202,30.85 -30.85,30.85c-17.03798,0 -30.85,-13.81202 -30.85,-30.85z" fill="#ffffff" stroke="#ffffff" stroke-width="9" stroke-linecap="butt"/><path d="M310.99,189.545c-2.32,5.33 -14.41,31.63 -43.69,42.31c-27.97,10.2 -60.56,2.11 -83.29,-20.61" fill="none" stroke="#ffffff" stroke-width="54" stroke-linecap="round"/><path d="M292.38,134.235h42.89c14.04,0 25.44,11.4 25.44,25.44v135.71h-94.69v-134.79c0,-14.55 11.81,-26.36 26.36,-26.36z" fill="#e7f5fd" stroke="#ffffff" stroke-width="11" stroke-linecap="butt"/><path d="M127.29,137.425c0,-17.03798 13.81202,-30.85 30.85,-30.85c17.03798,0 30.85,13.81202 30.85,30.85c0,17.03798 -13.81202,30.85 -30.85,30.85c-17.03798,0 -30.85,-13.81202 -30.85,-30.85z" fill="#262626" stroke="none" stroke-width="1" stroke-linecap="butt"/><path d="M140.92,183.155h35.19c11.52,0 20.87,9.35 20.87,20.87v102.35h-77.69v-101.6c0,-11.94 9.69,-21.63 21.63,-21.63z" fill="#262626" stroke="none" stroke-width="1" stroke-linecap="butt"/><path d="M259.02,92.155c0,-17.03798 13.81202,-30.85 30.85,-30.85c17.03798,0 30.85,13.81202 30.85,30.85c0,17.03798 -13.81202,30.85 -30.85,30.85c-17.03798,0 -30.85,-13.81202 -30.85,-30.85z" fill="#262626" stroke="none" stroke-width="1" stroke-linecap="butt"/><path d="M287.5,197.225c-2.32,5.33 -14.41,31.63 -43.69,42.31c-27.97,10.2 -60.56,2.11 -83.29,-20.61" fill="#1f2e3f" stroke="none" stroke-width="1" stroke-linecap="butt"/><path d="M268.88,141.915h42.89c14.04,0 25.44,11.4 25.44,25.44v139.02h-94.69v-138.1c0,-14.55 11.81,-26.36 26.36,-26.36z" fill="#262626" stroke="none" stroke-width="1" stroke-linecap="butt"/><path d="M150.78,129.745c0,-17.03798 13.81202,-30.85 30.85,-30.85c17.03798,0 30.85,13.81202 30.85,30.85c0,17.03798 -13.81202,30.85 -30.85,30.85c-17.03798,0 -30.85,-13.81202 -30.85,-30.85z" fill="#005b96" stroke="none" stroke-width="1" stroke-linecap="butt"/><path d="M164.42,175.475h35.19c11.52,0 20.87,9.35 20.87,20.87v99.04h-77.69v-98.29c0,-11.94 9.69,-21.63 21.63,-21.63z" fill="#005b96" stroke="none" stroke-width="1" stroke-linecap="butt"/><path d="M282.51,84.475c0,-17.03798 13.81202,-30.85 30.85,-30.85c17.03798,0 30.85,13.81202 30.85,30.85c0,17.03798 -13.81202,30.85 -30.85,30.85c-17.03798,0 -30.85,-13.81202 -30.85,-30.85z" fill="#005b96" stroke="none" stroke-width="1" stroke-linecap="butt"/><path d="M314.9,179.055c-1,3.64 -11.6,39.64 -47.59,52.8c-28.46,10.41 -61.29,2.32 -83.29,-20.61" fill="none" stroke="#1d3b6b" stroke-width="38" stroke-linecap="round"/><path d="M292.38,134.235h42.89c14.04,0 25.44,11.4 25.44,25.44v135.71h-94.69v-134.79c0,-14.55 11.81,-26.36 26.36,-26.36z" fill="#005b96" stroke="none" stroke-width="1" stroke-linecap="butt"/></g></g></svg>