<svg version="1.1" xmlns="http://www.w3.org/2000/svg" xmlns:xlink="http://www.w3.org/1999/xlink" width="90.29654" height="90.30497" viewBox="0,0,90.29654,90.30497"><g transform="translate(-194.85173,-134.84751)"><g data-paper-data="{&quot;isPaintingLayer&quot;:true}" fill="#ffffff" fill-rule="nonzero" stroke="none" stroke-width="1" stroke-linecap="round" stroke-linejoin="miter" stroke-miterlimit="10" stroke-dasharray="" stroke-dashoffset="0" style="mix-blend-mode: normal"><path d="M285.14827,180.00141c0,12.26284 -0.05339,13.79991 -0.27257,18.61625c-0.21918,4.8051 -0.9835,8.08718 -2.09907,10.959c-2.34635,6.06398 -7.14021,10.86065 -13.20419,13.20419c-2.87182,1.11557 -6.1539,1.87989 -10.959,2.09907c-4.81353,0.22199 -6.35341,0.27257 -18.61344,0.27257c-12.26003,0 -13.79991,-0.05339 -18.61344,-0.27257c-4.8051,-0.21918 -8.08718,-0.9835 -10.959,-2.09907c-3.01232,-1.13243 -5.74364,-2.91116 -7.99726,-5.20693c-2.29577,-2.25643 -4.0745,-4.98494 -5.20693,-7.99726c-1.11557,-2.87182 -1.87989,-6.1539 -2.09907,-10.959c-0.21918,-4.81634 -0.27257,-6.35341 -0.27257,-18.61625c0,-12.26284 0.05058,-13.79991 0.27257,-18.61625c0.21918,-4.8051 0.98069,-8.08718 2.09626,-10.959c1.13524,-3.01513 2.91397,-5.74364 5.20974,-7.99726c2.25362,-2.29858 4.98213,-4.0745 7.99726,-5.20974c2.87182,-1.11557 6.1539,-1.87989 10.959,-2.09907c4.81353,-0.21918 6.35341,-0.27257 18.61344,-0.27257c12.26003,0 13.79991,0.05339 18.61344,0.27257c4.8051,0.21918 8.08718,0.98069 10.959,2.09626c3.01232,1.13524 5.74364,2.91397 7.99726,5.20974c2.29577,2.25643 4.0745,4.98494 5.20693,7.99726c1.11557,2.87182 1.87989,6.1539 2.09907,10.959c0.21918,4.81634 0.27257,6.35622 0.27257,18.61906zM277.0077,179.9986c0,-12.0549 -0.04777,-13.48238 -0.26414,-18.24252c-0.19951,-4.40046 -0.93573,-6.79177 -1.55393,-8.38223c-0.72498,-1.96138 -1.87708,-3.7373 -3.37762,-5.19288c-1.45558,-1.50054 -3.22869,-2.65264 -5.19007,-3.37762c-1.59046,-0.6182 -3.97896,-1.35442 -8.38223,-1.55393c-4.76014,-0.21918 -6.18762,-0.26414 -18.24252,-0.26414v0c-12.0549,0 -13.48238,0.04496 -18.24252,0.26133c-4.40046,0.19951 -6.79177,0.93573 -8.38223,1.55393c-1.96138,0.72498 -3.73449,1.87708 -5.19288,3.37762c-1.49773,1.45558 -2.65264,3.2315 -3.37762,5.19288c-0.6182,1.59046 -1.35161,3.97896 -1.5455,8.38504c-0.21918,4.76014 -0.26414,6.18762 -0.26414,18.24252c0,12.0549 0.04777,13.48238 0.26414,18.24252c0.19951,4.40046 0.93573,6.79177 1.55393,8.38223c0.72498,1.96138 1.87708,3.73449 3.37762,5.19007c1.45558,1.50054 3.22869,2.65264 5.19007,3.37762c1.59046,0.6182 3.98177,1.35442 8.38223,1.55393c4.75733,0.21918 6.18481,0.26414 18.24252,0.26414c12.0549,0 13.48238,-0.04777 18.24252,-0.26414c4.40046,-0.19951 6.79177,-0.93573 8.38223,-1.55393c3.93681,-1.5174 7.04748,-4.63088 8.56769,-8.56769c0.6182,-1.59046 1.35442,-3.97896 1.55393,-8.38223c0.21637,-4.76014 0.25852,-6.18762 0.25852,-18.24252z"/><path d="M263.1825,179.99579c0,12.80517 -10.38014,23.18531 -23.18531,23.18531c-12.80236,0 -23.1825,-10.38295 -23.1825,-23.18531c0,-12.80236 10.37733,-23.1825 23.1825,-23.1825c12.80517,0 23.18531,10.37733 23.18531,23.1825zM255.05036,179.99579c0,-8.31198 -6.73838,-15.05036 -15.05036,-15.05036c-8.31198,0 -15.05036,6.73838 -15.05036,15.05036c0,8.31198 6.73838,15.05036 15.04755,15.05036c8.31198,0 15.05317,-6.73838 15.05317,-15.05036z"/><path d="M269.51624,155.89723c0,2.99265 -2.42503,5.41768 -5.41768,5.41768c-2.99265,0 -5.41768,-2.42503 -5.41768,-5.41768c0,-2.99265 2.42503,-5.41768 5.41768,-5.41768c2.99265,0 5.41768,2.42503 5.41768,5.41768z"/></g></g></svg>