<svg version="1.1" xmlns="http://www.w3.org/2000/svg" xmlns:xlink="http://www.w3.org/1999/xlink" width="174.08827" height="200.86126" viewBox="0,0,174.08827,200.86126"><g transform="translate(-152.95586,-79.56937)"><g data-paper-data="{&quot;isPaintingLayer&quot;:true}" fill="#ffffff" fill-rule="nonzero" stroke="none" stroke-width="1" stroke-linecap="butt" stroke-linejoin="miter" stroke-miterlimit="10" stroke-dasharray="" stroke-dashoffset="0" style="mix-blend-mode: normal"><path d="M327.04414,127.80296v34.24513c0,0 -12.10966,-0.50213 -21.09775,-2.88724c-12.5281,-3.3517 -20.55796,-8.49852 -20.55796,-8.49852c0,0 -5.57362,-3.68646 -5.99206,-3.93752v70.76658c0,3.93334 -1.04192,13.77505 -4.16348,21.98066c-2.73579,7.01665 -6.64697,13.51595 -11.56568,19.21895c0,0 -7.6993,9.54462 -21.22328,15.95094c-12.19334,5.77866 -22.93052,5.64894 -26.13577,5.77866c0,0 -18.51597,0.74482 -35.21592,-10.60327l-0.08369,-0.08369v0.08369c-5.64607,-3.93982 -10.68095,-8.68989 -14.94249,-14.09725c-5.2849,-6.74107 -8.52781,-14.73746 -9.36469,-17.08072v-0.08369c-1.33064,-3.97936 -4.12163,-13.60767 -3.70319,-22.90122c0.66532,-16.37356 6.15944,-26.46215 7.61561,-28.97279c3.82655,-6.88461 8.82517,-13.04863 14.77093,-18.2147c13.71854,-11.50027 31.62219,-16.73785 49.37593,-14.44455l-0.04184,35.12386c-2.89272,-0.94257 -5.91639,-1.42134 -8.9588,-1.41851c-16.07228,0 -29.09832,13.10554 -29.09832,29.2908c0,16.18526 13.02604,29.2908 29.09832,29.2908c5.00411,0.0065 9.92349,-1.29149 14.27299,-3.76596c8.47462,-4.81479 13.99907,-13.52967 14.73746,-23.24853c0,-0.02511 0,-0.05021 0,-0.07532c0.02092,-0.10043 0.02092,-0.20085 0.02092,-0.29709c0.01255,-0.23433 0.03348,-0.43518 0.03348,-0.65277c0.07532,-1.74908 0.07532,-3.51908 0.07532,-5.31v-133.39032h34.4962c-0.0544,0 -0.41426,3.30568 0.4561,8.41483h-0.04184c1.04192,6.15525 3.87057,14.94668 11.44434,23.61257c3.02702,3.27283 6.43668,6.16971 10.15554,8.62823c1.27885,0.83265 2.59859,1.60075 3.95426,2.30142c8.82072,4.39781 17.4364,5.73681 21.67938,5.27653z"/></g></g></svg>