<svg version="1.1" xmlns="http://www.w3.org/2000/svg" xmlns:xlink="http://www.w3.org/1999/xlink" width="252.9" height="177.03" viewBox="0,0,252.9,177.03"><g transform="translate(-113.40659,-91.34159)"><g data-paper-data="{&quot;isPaintingLayer&quot;:true}" fill="#ffffff" fill-rule="nonzero" stroke="none" stroke-width="1" stroke-linecap="round" stroke-linejoin="miter" stroke-miterlimit="10" stroke-dasharray="" stroke-dashoffset="0" style="mix-blend-mode: normal"><path d="M366.30659,179.85659c0,0 0,41.14964 -5.28561,60.87022c-2.90835,10.88032 -11.47885,19.45082 -22.35917,22.35917c-19.72058,5.28561 -98.80522,5.28561 -98.80522,5.28561c0,0 -79.08464,0 -98.80522,-5.28561c-10.88032,-2.90835 -19.45082,-11.47885 -22.35917,-22.35917c-5.28561,-19.72058 -5.28561,-60.87022 -5.28561,-60.87022c0,0 0,-41.14964 5.28561,-60.87022c2.90835,-10.88032 11.47885,-19.45082 22.35917,-22.35917c19.72058,-5.28561 98.80522,-5.28561 98.80522,-5.28561c0,0 79.08464,0 98.80522,5.28561c10.88032,2.90835 19.45082,11.47885 22.35917,22.35917c5.28561,19.72058 5.28561,60.87022 5.28561,60.87022zM280.27001,179.85659l-65.70342,-37.935v75.87z"/></g></g></svg>