<?xml version="1.0" encoding="UTF-8"?>
<svg id="Calque_1" xmlns="http://www.w3.org/2000/svg" viewBox="0 0 562.11 633.69">
  <defs>
    <style>
      .cls-1 {
        stroke-width: 27px;
      }

      .cls-1, .cls-2 {
        fill: #fff;
      }

      .cls-1, .cls-2, .cls-3 {
        stroke: #fff;
        stroke-miterlimit: 10;
      }

      .cls-2 {
        stroke-width: 22px;
      }

      .cls-3 {
        fill: none;
        stroke-width: 57px;
      }
    </style>
  </defs>
  <path class="cls-3" d="M529.05,507.98c3.75-.49,6.05,4,3.45,6.74-19.72,20.71-42.85,38.84-69.14,53.5-164.08,91.52-378.49,7.52-426.82-190.52-23.48-96.24,5.32-198.16,75.81-267.77,44.12-43.57,95.75-70.12,148.85-81.34,3.74-.79,6.39,3.57,3.98,6.53-72.98,89.82-88.14,218.56-28.32,325.8,59.84,107.27,177.4,162.01,292.2,147.06Z"/>
  <path class="cls-1" d="M374.8,107.68l3.19,10.18c8.97,28.67,31.46,51.11,60.15,60.03l10.35,3.22-10.35,3.22c-28.69,8.92-51.17,31.35-60.15,60.03l-3.19,10.18-3.19-10.18c-8.97-28.67-31.46-51.11-60.15-60.03l-10.35-3.22,10.35-3.22c28.69-8.92,51.17-31.35,60.15-60.03l3.19-10.18Z"/>
  <path class="cls-2" d="M481.89,316.85h0c4.97,15.88,17.43,28.31,33.32,33.25l.07.02-.07.02c-15.89,4.94-28.35,17.37-33.32,33.25h0s0,0,0,0c-4.97-15.88-17.43-28.31-33.32-33.25l-.07-.02.07-.02c15.89-4.94,28.35-17.37,33.32-33.25h0Z"/>
</svg>